<svg width="50" height="50" viewBox="0 0 50 50" fill="none" xmlns="http://www.w3.org/2000/svg">
<rect width="50.0001" height="50" rx="25" fill="#10B1FF"/>
<path d="M12.6486 23.5606C19.0926 20.7545 23.3886 18.9043 25.5366 18.0105C31.6761 15.4581 32.9514 15.0149 33.7801 15C33.9628 14.9969 34.372 15.0421 34.6393 15.2572C34.8625 15.4385 34.9235 15.6836 34.9539 15.8555C34.981 16.0274 35.0181 16.4193 34.9877 16.7252C34.6562 20.219 33.2186 28.6974 32.4846 32.6107C32.1767 34.2666 31.5645 34.8216 30.9759 34.8757C29.6905 34.9937 28.7163 34.0279 27.4748 33.2135C25.5298 31.9385 24.4304 31.1452 22.5429 29.9013C20.3611 28.4637 21.7751 27.6734 23.0199 26.3822C23.3446 26.0443 28.9971 20.9019 29.1087 20.4355C29.1222 20.3771 29.1357 20.1596 29.0038 20.045C28.8753 19.93 28.6858 19.9694 28.5471 20.0005C28.3509 20.0447 25.2457 22.0981 19.2246 26.1606C18.3451 26.7661 17.5434 27.0613 16.8296 27.0458C16.0381 27.0289 14.5227 26.5997 13.3929 26.2331C12.0094 25.7832 10.91 25.5453 11.0047 24.7813C11.0555 24.3836 11.6034 23.9766 12.6486 23.5606Z" fill="white"/>
</svg>
