<svg width="50" height="50" viewBox="0 0 50 50" fill="none" xmlns="http://www.w3.org/2000/svg">
<rect y="3.05176e-05" width="50.0001" height="50" rx="25" fill="#5175DE"/>
<path fill-rule="evenodd" clip-rule="evenodd" d="M22.7509 18.0274C21.8328 18.1125 21.3396 18.2973 21.0634 18.6596C20.8861 18.8921 20.9106 18.934 21.2787 19.0289C21.6847 19.1335 21.9649 19.3353 22.1101 19.6275C22.4002 20.2115 22.5191 21.712 22.3781 23.013C22.2564 24.1365 22.0855 24.5972 21.7683 24.6567C21.2877 24.7469 20.6422 24.1686 19.9876 23.0617C19.6731 22.5298 18.4119 20.0437 18.2298 19.5968C18.0027 19.0393 17.8761 18.8676 17.5826 18.7188L17.3285 18.5901L15.4765 18.5904C14.2892 18.5905 13.5573 18.6088 13.4373 18.6415C13.3343 18.6695 13.1901 18.7484 13.1168 18.8168C12.9038 19.0156 12.9553 19.2395 13.474 20.3693C14.6867 23.0106 15.9486 25.2087 17.316 27.0612C18.5402 28.7198 19.1511 29.3424 20.3406 30.1437C21.352 30.825 22.027 31.1473 22.9614 31.3949C23.5943 31.5626 24.2453 31.6178 25.3718 31.5994C26.2921 31.5845 26.369 31.5764 26.5785 31.4732C26.9082 31.3107 26.9725 31.152 27.0295 30.3599C27.0965 29.4284 27.2522 28.9912 27.6429 28.6381C27.9626 28.3491 28.2761 28.4086 28.8004 28.8576C28.9572 28.9919 29.2703 29.3125 29.4961 29.57C30.1502 30.3159 30.9171 31.0575 31.2305 31.2472C31.3896 31.3436 31.6423 31.4688 31.7922 31.5257C32.0593 31.627 32.1009 31.6287 33.96 31.6144C35.0026 31.6063 35.9914 31.5813 36.1575 31.5587C36.9984 31.4443 37.1644 30.8392 36.6013 29.9418C36.1947 29.2939 35.8321 28.8818 34.5231 27.5801C33.1219 26.1866 33.0459 26.0831 33.0798 25.6147C33.1061 25.2499 33.2166 25.0752 34.5017 23.366C35.0729 22.6063 35.7218 21.7127 35.9436 21.3803C36.5942 20.4054 37.0093 19.4675 36.9989 18.996C36.9964 18.8844 36.9872 18.869 36.9616 18.934C36.9307 19.0125 36.9229 19.01 36.8757 18.9063C36.8471 18.8435 36.7428 18.752 36.6439 18.7028C36.4743 18.6186 36.3339 18.6135 34.2174 18.6135C32.9819 18.6135 31.8895 18.6269 31.7899 18.6433C31.5105 18.6894 31.3741 18.8702 31.0592 19.6121C30.3879 21.1938 29.4354 22.8641 28.6584 23.8225C28.304 24.2595 27.8442 24.6302 27.6565 24.6302C27.4397 24.6302 27.2008 24.4052 27.0949 24.1013C27.0035 23.8393 26.989 23.033 27.0259 20.2757C27.0392 19.2836 27.0293 19.0413 26.9675 18.8424C26.8294 18.3981 26.5945 18.2185 25.9876 18.0931C25.5903 18.011 23.4063 17.9667 22.7509 18.0274ZM13.0054 19.1051C13.0054 19.221 13.0145 19.2684 13.0257 19.2105C13.0368 19.1525 13.0368 19.0577 13.0257 18.9998C13.0145 18.9418 13.0054 18.9892 13.0054 19.1051Z" fill="white"/>
</svg>
