<svg width="30" height="30" viewBox="0 0 30 30" fill="none" xmlns="http://www.w3.org/2000/svg">
<g id="Group 1659">
<g id="Subtract">
<mask id="path-1-inside-1_589_812" fill="white">
<path fill-rule="evenodd" clip-rule="evenodd" d="M27.0867 23.8849C28.9179 21.3979 30 18.3253 30 15C30 6.71573 23.2843 0 15 0C6.71573 0 0 6.71573 0 15C0 18.296 1.06304 21.3437 2.86497 23.8189C3.95193 19.8664 11.1857 17.7164 14.9672 17.7164C18.7507 17.7164 26.0603 19.8903 27.0867 23.8849ZM20.7661 10.0057C20.7661 6.88382 18.246 4.36373 15.1241 4.36373C12.0022 4.36373 9.48206 6.88382 9.48206 10.0057C9.48206 13.1276 12.0022 15.6477 15.1241 15.6477C18.246 15.6477 20.7661 13.1276 20.7661 10.0057Z"/>
</mask>
<path d="M27.0867 23.8849L25.1496 24.3826L26.1984 28.4644L28.6972 25.0708L27.0867 23.8849ZM2.86497 23.8189L1.24805 24.996L3.69221 28.3534L4.79338 24.3492L2.86497 23.8189ZM28 15C28 17.8844 27.063 20.544 25.4762 22.699L28.6972 25.0708C30.7729 22.2519 32 18.7663 32 15H28ZM15 2C22.1797 2 28 7.8203 28 15H32C32 5.61116 24.3888 -2 15 -2V2ZM2 15C2 7.8203 7.8203 2 15 2V-2C5.61116 -2 -2 5.61116 -2 15H2ZM4.4819 22.6418C2.92056 20.497 2 17.859 2 15H-2C-2 18.733 -0.794468 22.1903 1.24805 24.996L4.4819 22.6418ZM4.79338 24.3492C5.07728 23.3169 6.37154 22.1147 8.6907 21.1249C10.8844 20.1887 13.3721 19.7164 14.9672 19.7164V15.7164C12.7808 15.7164 9.76085 16.3191 7.12056 17.446C4.60573 18.5193 1.73963 20.3684 0.936566 23.2886L4.79338 24.3492ZM14.9672 19.7164C16.5616 19.7164 19.0673 20.1939 21.2718 21.1404C22.3628 21.6089 23.298 22.1578 23.9868 22.7512C24.6788 23.3473 25.0264 23.903 25.1496 24.3826L29.0238 23.3872C28.6338 21.8696 27.6828 20.6556 26.5974 19.7205C25.5087 18.7828 24.1876 18.0393 22.8499 17.4649C20.1971 16.3259 17.1563 15.7164 14.9672 15.7164V19.7164ZM15.1241 6.36373C17.1414 6.36373 18.7661 7.98839 18.7661 10.0057H22.7661C22.7661 5.77925 19.3505 2.36373 15.1241 2.36373V6.36373ZM11.4821 10.0057C11.4821 7.98839 13.1067 6.36373 15.1241 6.36373V2.36373C10.8976 2.36373 7.48206 5.77925 7.48206 10.0057H11.4821ZM15.1241 13.6477C13.1067 13.6477 11.4821 12.0231 11.4821 10.0057H7.48206C7.48206 14.2322 10.8976 17.6477 15.1241 17.6477V13.6477ZM18.7661 10.0057C18.7661 12.0231 17.1414 13.6477 15.1241 13.6477V17.6477C19.3505 17.6477 22.7661 14.2322 22.7661 10.0057H18.7661Z" fill="white" mask="url(#path-1-inside-1_589_812)"/>
</g>
<circle id="Ellipse" cx="15" cy="15" r="14" stroke="white" stroke-width="2"/>
</g>
</svg>
