<svg width="20" height="21" viewBox="0 0 20 21" fill="none" xmlns="http://www.w3.org/2000/svg">
<path d="M0 20.1642L1.25154 19.2283C2.03895 18.6356 3.25358 18.6277 4.05265 19.2099L5.63751 20.3566C5.90188 20.5485 6.3025 20.5478 6.56551 20.3546L8.12729 19.2121C8.91986 18.6297 10.1277 18.6297 10.9203 19.2121L12.482 20.3546C12.7451 20.5476 13.1457 20.5485 13.4101 20.3566L14.9949 19.2096C15.794 18.6275 17.0089 18.6356 17.796 19.2283L19.0476 20.1642V0.5H0V20.1642ZM4.87887 7.0234H13.7971C14.1809 7.0234 14.492 7.27585 14.492 7.58685C14.492 7.89806 14.1809 8.15029 13.7971 8.15029H4.87887C4.49508 8.15029 4.18402 7.89806 4.18402 7.58685C4.18402 7.27585 4.49508 7.0234 4.87887 7.0234ZM4.87887 10.9407H13.7971C14.1809 10.9407 14.492 11.1929 14.492 11.5041C14.492 11.8153 14.1809 12.0675 13.7971 12.0675H4.87887C4.49508 12.0675 4.18402 11.8153 4.18402 11.5041C4.18402 11.1929 4.49508 10.9407 4.87887 10.9407Z" fill="white"/>
</svg>
