<svg width="90" height="53" viewBox="0 0 90 53" fill="none" xmlns="http://www.w3.org/2000/svg">
<g id="logo-pl" clip-path="url(#clip0_868_114)">
<g id="&#208;&#161;&#208;&#187;&#208;&#190;&#208;&#185; x0020 1">
<path id="Vector" fill-rule="evenodd" clip-rule="evenodd" d="M36.6239 32.1936C37.6985 32.6483 39.0696 33.1793 39.737 33.3539C40.8097 33.638 40.7042 33.7276 40.4858 34.5433C40.2609 35.3658 40.1218 36.3171 39.7156 36.2568C39.5959 36.2356 39.3554 36.1269 39.3018 35.9524C39.1704 35.5337 39.3136 34.9063 38.4783 34.1863C37.6701 33.4948 36.8367 33.1344 36.3956 32.9695C36.336 33.0425 36.2786 33.1163 36.2253 33.1961C36.0841 33.3981 35.3547 35.0623 34.6116 36.8006C35.2533 37.3197 35.7943 37.5514 36.3956 37.4266C37.1288 37.272 37.0259 36.5723 37.51 36.6896C37.7938 36.7639 38.4587 37.3457 38.0849 37.9618C37.7159 38.5907 36.463 38.916 35.3219 38.302C34.6406 37.9396 34.4324 37.7664 34.2684 37.6015C33.5106 39.3682 32.8314 40.9914 32.8314 40.9914C32.8314 40.9914 33.9453 41.5351 35.595 41.554C36.765 41.5653 37.166 41.0461 37.5978 40.8265C37.7747 40.7362 38.0311 40.8158 38.1317 40.8707C38.4722 41.073 37.8005 41.8385 37.2996 42.5509C36.7922 43.2733 36.7917 43.3968 35.8084 42.9319C34.825 42.4571 31.8495 41.5248 31.17 41.3736C30.4901 41.2197 29.8718 41.1635 30.1237 40.8107C30.3772 40.4477 32.2498 36.622 32.7404 35.3763C33.1172 34.412 33.9823 32.1581 33.9147 31.5747C33.8417 30.9868 34.0933 30.9494 34.3451 31.0801C34.9433 31.386 36.2698 31.9914 36.6132 32.1895C36.6185 32.1895 36.6204 32.1917 36.6239 32.1936V32.1936ZM42.244 35.4466C42.0293 34.9317 41.9173 34.2788 42.7445 34.5165C43.3099 34.6866 43.5863 34.8111 44.6356 35.0116C46.1636 35.3068 48.8945 36.5581 48.8024 38.3939C48.7243 39.9535 47.0829 41.2259 45.4379 41.3166C45.7967 43.3259 46.0271 45.1429 46.2371 45.5671C46.6589 46.4348 46.953 46.9556 46.5137 46.8832C44.9757 46.6525 43.6599 46.0645 43.3939 45.001C43.1247 43.9378 43.1984 41.6258 43.1984 41.6258C43.1984 41.6258 43.1287 41.4226 42.9779 41.1936C42.6962 41.7654 42.1598 42.8678 41.7462 43.7715C41.0332 45.3164 41.1854 44.9608 40.1055 44.5725C38.8209 44.1157 38.5227 44.4418 38.8209 43.8058C39.1139 43.1722 41.8234 37.5311 41.9821 36.8543C42.2051 35.9322 42.3312 35.6369 42.244 35.4466H42.244ZM49.7778 41.0102C50.1776 39.4217 50.4082 38.507 50.1223 37.8374C49.8325 37.1645 50.0643 37.1061 50.3783 37.1763C51.113 37.3451 52.0983 37.5662 52.5564 37.598C53.0768 37.6402 53.3427 37.6766 53.1837 38.302C53.0241 38.9253 50.9528 46.6076 50.9528 46.6076L51.4609 46.7187C51.4609 46.7187 55.1009 47.4714 55.646 47.2539C56.8084 46.791 56.6772 46.0113 57.1069 45.6339C57.2924 45.4711 57.5612 45.5187 57.6685 45.5798C58.0348 45.7864 57.3462 47.0897 57.2117 48.1329C57.057 49.3007 56.7921 49.2277 55.5859 48.8958C54.4814 48.5924 50.304 47.63 49.4338 47.5371C48.8207 47.4719 48.2551 47.4713 48.0672 47.2905H48.0606V47.2857C47.9911 47.2041 47.9762 47.0996 48.0543 46.9511C48.0543 46.9511 49.4162 42.4303 49.7778 41.0101L49.7778 41.0102ZM56.1987 42.7813C57.3016 41.0327 58.4354 39.2116 58.4766 39.0374C58.5574 38.7206 57.9455 38.6266 57.9705 38.3904C57.9705 38.3904 58.7211 38.3856 59.5777 38.5008C60.4347 38.6266 60.4164 38.4158 60.6886 39.301C60.9501 40.1516 61.5649 44.1514 61.6203 44.5097C62.155 44.5216 62.4667 44.4579 62.7205 44.2837C62.7448 44.2632 62.7686 44.243 62.7937 44.2238C62.9956 44.0397 63.0828 43.8092 63.2304 43.7026C63.2411 43.6865 63.2496 43.6799 63.2607 43.6666C63.2743 43.6605 63.3033 43.6564 63.3443 43.6478C63.3923 43.6392 63.4409 43.6357 63.5039 43.6478C63.5316 43.6564 63.5516 43.6639 63.5814 43.6666C63.6465 43.682 63.7233 43.7053 63.7956 43.7314C64.0628 43.824 64.3222 43.9865 64.3222 44.3094C64.3342 44.401 64.335 44.4988 64.3146 44.6067C64.2384 45.06 63.6875 45.2266 63.1313 45.2804C62.7469 45.3332 62.2997 45.3332 61.83 45.2804C61.7812 45.684 62.2555 47.5638 62.6489 48.3136C63.0566 49.0991 63.3348 49.5727 62.9253 49.527C61.4933 49.3738 60.2059 48.6425 59.948 47.6722C59.7011 46.7763 59.5979 45.0411 59.5979 44.8512C59.4649 44.8248 59.3332 44.7973 59.1991 44.7607C58.7282 44.6702 57.9185 44.4656 57.1988 44.0383C57.1988 44.0383 56.9042 44.4552 56.6764 44.9882C56.4487 45.53 56.4523 45.6339 56.0671 45.7443C55.6825 45.8502 55.0102 46.3268 54.1795 46.3577C53.3427 46.3858 53.9255 46.0645 54.4769 45.2094C54.6898 44.8738 55.0593 44.5852 55.8205 43.3751C55.6461 43.3538 55.4745 43.3704 55.3029 43.418C54.6825 43.5733 54.6466 44.1191 54.4019 44.0396C54.16 43.9759 53.5136 43.6 53.7773 43.0971C54.0459 42.5931 55.1365 42.3654 56.188 42.7786C56.1935 42.7786 56.1935 42.7786 56.1987 42.7813L56.1987 42.7813ZM31.5183 29.6119C31.5042 29.4367 32.1301 29.7453 32.4968 30.1865C32.8411 30.6012 32.8263 32.2498 31.4288 32.0294C30.5797 31.905 30.1447 31.4524 29.5053 30.9781C29.3898 31.6872 29.0338 33.2779 28.7282 34.4818C28.318 36.1282 28.2575 37.2298 27.9547 38.8217C27.803 39.61 27.7713 40.6697 27.5814 40.5935C27.4046 40.5247 25.5164 40.3525 25.4266 40.2587C25.3307 40.1629 25.0772 39.4948 25.4183 38.1191C25.713 36.9528 27.1479 31.2426 27.2827 30.6775C27.3762 30.2771 27.4247 30.0286 27.4104 29.9102C27.033 29.7755 26.7572 29.722 26.2028 29.6556C25.1711 29.533 24.8189 30.0233 24.429 30.1962C24.265 30.2756 24.0249 30.1725 23.9319 30.1058C23.6187 29.8646 23.8397 29.2043 24.2952 28.5418C24.7495 27.8827 24.7508 27.7558 25.6313 28.3351C26.2368 28.7282 27.8662 29.3083 28.9319 29.673L28.9376 29.659C31.5004 30.5302 31.534 29.9195 31.5183 29.6119ZM47.6621 32.4433C40.1972 29.7579 32.2544 25.641 24.5687 22.6963C25.275 22.7693 26.7496 22.3767 26.1389 20.497C25.7492 19.2957 24.3063 18.0515 23.9844 17.9125C24.1169 17.8392 24.4242 17.9666 24.554 18.2291C24.5452 18.0515 24.4925 17.8595 24.3668 17.7008C24.6183 17.8366 24.7724 18.0634 24.7573 18.4447C24.8331 18.3227 24.9833 18.3276 25.0414 18.1808C25.0927 18.3655 25.1089 18.5678 25.0438 18.6738C25.1669 18.5707 25.321 18.4226 25.321 18.2342C25.476 18.2958 25.5644 18.4337 25.55 18.8418C25.7003 18.7548 25.7922 18.622 25.8222 18.4542C26.1536 18.5818 26.1704 18.7688 26.0605 18.9142C26.2725 18.8599 26.5482 18.7548 26.4441 18.2607C26.661 18.6155 27.0091 18.9021 26.6146 19.2193C26.9914 19.1236 27.1509 18.7708 27.0133 18.3227C27.4693 18.622 27.3821 19.0863 27.1544 19.3133C27.1874 19.3118 27.2231 19.3018 27.259 19.2836C27.0257 20.0307 26.8123 20.7944 26.6199 21.5727C26.631 21.5769 26.6437 21.5818 26.6543 21.5858C28.9135 14.5639 33.4415 9.19837 38.2559 6.35012C35.228 10.3147 32.8203 16.4106 31.6371 23.5716C31.644 23.5747 31.6524 23.5783 31.6586 23.5813C33.7377 13.9529 38.3622 6.80484 43.2904 4.81834C41.1854 9.11421 39.3535 17.1857 38.4764 26.7186C38.5033 26.7326 38.5358 26.7473 38.5673 26.7613C40.0609 13.738 43.3246 4.07917 46.4328 4.28892C49.8765 4.52254 51.8551 16.7834 50.9759 31.9598C51.0157 31.499 51.0489 31.0269 51.0817 30.5589C51.8254 19.7438 51.1242 10.2397 49.4771 5.23322C55.1351 8.46428 58.8189 19.4623 58.2255 32.4425C58.2667 31.9852 58.3043 31.5179 58.3383 31.0519C58.994 21.4862 57.3367 12.8658 54.2511 7.43017C60.2776 12.2006 64.1107 21.8403 63.7097 32.8163C63.7544 32.3544 63.7969 31.8874 63.8281 31.4222C64.4053 23.029 62.5098 15.3214 59.019 9.82083C64.1241 14.4801 67.5144 21.6521 68.0624 29.7718C67.8428 29.7675 67.6644 29.7632 67.5396 29.7594C67.0591 29.7461 67.334 30.3499 68.1281 31.1642C68.1454 31.8098 68.145 32.4609 68.1259 33.1163C68.1748 32.6504 68.216 32.1874 68.2492 31.718C68.2586 31.5823 68.267 31.4466 68.2749 31.3112C69.5303 32.5415 71.8754 34.174 74.5638 34.9217C68.2643 36.8027 59.9945 36.8856 47.6621 32.4433V32.4433ZM24.0778 16.6385C23.967 16.6366 23.8668 16.6419 23.7817 16.6553C23.8088 16.5611 23.9793 16.479 24.1699 16.4414L24.0778 16.6385ZM26.4873 17.2615C26.1288 17.0378 25.3177 16.7929 24.6283 16.689L24.7233 16.5426C24.7348 16.5607 24.743 16.581 24.7474 16.6037C24.835 16.4648 24.9419 16.4041 24.8878 16.2942L24.9589 16.1891C25.2149 16.2888 25.2318 16.5146 25.0772 16.6317C25.3307 16.5991 25.5328 16.4121 25.5328 16.1679C25.713 16.2683 26.0981 16.5916 25.7535 16.7652C26.015 16.7467 26.2765 16.6156 26.1866 16.3098C26.4425 16.4539 26.5313 16.8256 26.1496 16.9211C26.4212 16.9506 26.6183 16.9167 26.7266 16.7414C26.8252 16.8714 26.8346 17.0629 26.6233 17.3004C27.4813 16.6701 26.5281 15.8891 25.788 15.594C25.6798 15.5505 25.5691 15.5127 25.4565 15.4816C27.6415 12.4825 30.4163 10.0075 33.205 8.08031C30.8579 10.8608 28.905 14.3874 27.539 18.4231C27.4457 18.0798 27.1504 17.6713 26.4873 17.2615L26.4873 17.2615ZM24.6924 15.3842C24.349 15.3939 24.0029 15.4803 23.671 15.6693C23.8575 15.3903 24.0035 15.0717 24.0782 14.7286C24.1411 14.5423 24.1808 14.3577 24.1927 14.1745C25.2064 13.1543 26.2632 12.1945 27.2536 11.2719C26.307 12.5475 25.4489 13.9229 24.6924 15.3842V15.3842ZM5.55583 17.007C5.55443 16.9937 5.55329 16.9805 5.55252 16.9675C5.55352 16.9805 5.55464 16.9937 5.55583 17.007ZM11.3633 12.2583C11.0364 13.1216 10.3031 15.4446 10.1011 19.1525C6.56073 18.9959 3.20433 19.5529 0.135575 21.18C-0.11316 23.4035 0.0208563 25.6913 0.215974 27.984C0.879565 35.7391 3.77123 43.6302 7.1736 48.4631C21.4414 40.2614 34.1445 48.0692 53.9052 51.3493C68.0755 53.7078 79.1282 49.9422 84.8249 44.7431C88.1455 38.4654 89.7229 31.9687 89.9951 24.6802C90.0917 22.115 88.7842 25.7524 85.9318 28.6873C86.0501 27.0728 85.9119 22.0441 82.9079 14.8145C79.187 5.86304 73.3254 0.778076 73.3254 0.778076C73.3254 0.778076 74.6127 5.88671 74.6318 11.5887C74.6446 14.5313 74.3445 16.4864 74.2432 17.1711C73.9261 17.7558 73.1715 19.7124 72.3979 21.8405C69.0199 10.7362 58.9943 2.32344 46.6252 1.49231C37.0526 0.844073 28.252 4.88532 22.506 11.6371L22.5018 11.6339C20.5609 10.167 16.9293 9.77999 16.2764 9.91241C16.3992 9.6461 17.0206 9.5103 17.5092 9.78947C17.3084 9.51956 17.01 9.27441 16.6365 9.15672C17.1796 9.10531 17.6749 9.29255 18.068 9.90726C18.0537 9.63056 18.2904 9.4698 18.2287 9.18702C18.5109 9.42379 18.7541 9.72214 18.7676 9.95457C18.8485 9.66083 18.9251 9.26245 18.7235 8.96756C19.0379 8.89631 19.3242 9.01395 19.7516 9.66893C19.8852 9.37013 19.8879 9.06557 19.7522 8.76291C20.4083 8.60823 20.64 8.88002 20.6306 9.2288C20.903 8.91824 21.2244 8.45086 20.513 7.7922C21.2443 8.1124 22.1077 8.18692 21.8404 9.11497C22.326 8.55412 22.1871 7.82964 21.4726 7.27222C22.5261 7.24954 22.8999 8.07155 22.7889 8.66855C23.3288 8.26813 23.2059 5.9934 19.481 6.17383C18.2784 6.23435 15.4797 7.28683 14.5645 8.15367C14.4233 7.74247 15.5741 6.58636 16.0183 7.02879C16.0021 6.59847 16.2006 6.36599 15.5229 6.29924C16.2681 5.87404 16.7121 6.2871 16.5744 6.71122C16.9371 6.38721 17.0426 5.87952 16.773 5.49307C17.1694 5.44879 18.1309 5.5432 17.7788 6.19083C18.1742 5.8833 18.4385 5.39258 17.9615 5.01032C18.5231 4.96282 19.0641 5.44329 18.5748 6.00621C19.0343 5.7563 19.305 5.48961 19.283 5.09772C19.5792 5.19134 19.8114 5.48752 19.7392 6.09378C20.384 4.16856 18.031 3.98073 16.5453 4.31627C15.1253 4.63937 13.7625 5.4132 13.1556 6.98694C13.2158 5.23044 12.8171 3.80915 11.7013 2.93984C9.15658 0.952227 7.18445 2.75486 7.44001 3.68642C7.44737 3.16853 7.9787 2.55604 8.88005 2.61409C8.1773 3.05768 8.15212 3.61449 8.38955 4.11502C8.213 3.2504 9.57358 2.97198 10.114 3.13861C9.46589 3.41537 8.74888 4.25295 8.95839 4.82C9.25183 3.86766 10.8627 3.98381 11.3079 4.25295C10.5876 4.21697 10.0707 4.4086 9.6607 4.8221C10.0558 4.5463 11.0505 4.79427 11.0433 5.11699C10.627 5.25716 9.80706 5.70352 9.67353 6.03739C9.89775 5.84576 10.6357 5.64658 11.0974 5.76066C10.6302 5.8781 10.2081 6.26458 10.1081 6.5984C10.5118 6.51196 10.696 6.51083 11.1385 6.4993C10.8527 6.79757 10.6825 7.00508 10.5749 7.27214C10.5119 7.20009 10.4655 7.1462 10.4068 7.06974C9.10371 5.72923 8.38601 4.86519 6.51569 4.1621C5.00462 3.58884 3.57794 4.32439 3.61506 5.46272C3.7531 4.67 5.42347 4.49713 5.84938 4.85421C4.88825 4.89589 4.64501 5.80567 4.64361 6.49932C5.08897 5.79551 5.94108 5.55412 7.37056 6.07483C5.94105 6.04708 5.11055 6.32717 4.70789 7.30436C5.40675 6.63114 6.33389 6.58124 7.19939 6.88577C6.52111 7.06111 6.00458 7.35504 5.68837 7.82204C6.41892 7.44962 7.04532 7.31627 8.30299 7.76172C7.56919 7.94483 7.22926 8.00402 6.88182 8.49297C7.81897 7.99609 8.63949 8.34412 9.54626 8.74265C8.8511 8.76725 7.66585 8.92233 7.33654 9.10526C2.80351 8.00399 0.145758 10.4407 1.80882 14.9771C1.72048 14.4261 1.59861 13.0784 2.31706 12.214C2.39331 12.9134 2.53527 13.1363 2.8394 13.4507C2.76231 11.7231 3.13391 11.2206 4.00713 10.8039C3.88539 11.0836 3.7227 11.5453 3.98875 12.2301C4.10844 11.4026 4.57943 10.6469 5.48083 10.338C5.11404 10.8406 5.00671 11.2527 5.10442 11.8423C5.34638 11.2043 6.0256 10.579 7.48718 10.3853C6.90893 10.8466 6.60686 11.7468 6.64813 12.2127C7.2081 11.4583 8.68343 10.8179 9.48628 11.1347C7.97312 11.862 6.56075 12.8696 5.7647 13.6638C3.98218 15.4445 2.61974 17.6332 3.49138 19.8037C3.44019 19.1377 3.4422 18.243 3.84628 17.6298C3.78681 18.2839 4.4972 19.042 5.24434 19.4216C4.94988 18.8277 4.86195 17.9061 5.05248 17.2679C5.00671 17.9024 5.54848 18.2472 6.00806 18.7299C5.88642 18.1335 5.61085 17.6019 5.55583 17.0069C5.62638 17.643 6.51144 18.1764 7.26778 18.3788C6.83528 17.878 6.39588 17.2715 6.34534 16.7414C6.63985 17.2467 7.38998 17.5394 8.03733 17.7007C7.62919 17.1711 7.23376 16.074 7.30276 15.3312C7.75557 16.0029 8.03863 16.5543 8.94955 17.0044C8.77197 16.3023 8.06098 15.6844 8.36982 14.8691C8.38958 15.3106 8.81935 15.6594 9.33549 15.8665C9.25735 15.2147 8.97936 14.6001 9.16252 13.8802C9.31484 14.2699 9.75938 14.626 10.1323 14.8729C9.98283 14.495 10.0499 13.9784 10.1133 13.5543C10.2552 13.9211 10.353 14.1414 10.6856 14.337C10.404 13.0818 10.881 12.7445 11.3491 12.2256C11.3602 12.2376 11.3648 12.2442 11.3633 12.2582V12.2583ZM68.3291 29.7774C68.4092 23.8713 66.9925 18.3573 64.4789 13.7886C67.5231 17.5065 69.6647 22.0859 70.5711 27.1179C70.3725 27.7377 70.2371 28.1967 70.1965 28.4047C70.0684 29.0632 69.9031 29.0961 70.8428 28.9414C70.8773 29.2326 70.9075 29.525 70.9336 29.8187C69.9606 29.8048 69.0088 29.7902 68.3291 29.7774ZM70.9966 25.8298C70.5658 22.4879 69.595 19.3203 68.1769 16.4429C69.6986 18.5919 70.9292 20.9521 71.8157 23.4641C71.5213 24.2959 71.2402 25.108 70.9966 25.8298L70.9966 25.8298ZM71.2358 28.8776L71.4215 28.8489C72.2459 28.7229 72.7716 28.7286 73.1225 28.7263C73.1778 29.0989 73.2258 29.4736 73.2664 29.8503C72.6603 29.8425 71.9558 29.8331 71.2486 29.8232C71.249 29.507 71.2447 29.1918 71.2358 28.8777V28.8776ZM73.5878 28.6849C73.7064 28.6465 73.7845 28.5716 73.8532 28.425C74.0964 27.9111 74.1051 23.1711 74.049 21.3649C74.014 19.9922 74.1895 18.2109 74.2754 17.4317C74.9372 22.7124 75.0338 29.8726 75.0338 29.8726L73.6214 29.855C73.6182 29.4633 73.6069 29.0733 73.5878 28.6849H73.5878ZM24.505 22.6702C23.888 22.4356 23.2734 22.204 22.6586 21.9859C22.7486 21.6866 22.8288 21.3791 22.891 21.0429C22.9911 20.5043 23.0118 20.0539 22.9989 19.6655L23.0731 19.504C23.3295 19.4726 23.7759 19.3404 23.895 19.2176C24.0716 19.9071 23.6044 20.0953 23.1741 20.2722C23.8013 20.2809 24.2291 20.0679 24.5431 19.7632C24.6074 20.0953 24.2398 20.3003 23.9588 20.3552C24.3629 20.3966 24.8407 20.4931 25.0664 20.2898C24.9424 20.5092 24.726 20.7311 24.2519 20.8602C24.5792 21.0488 25.1643 20.9257 25.2874 20.6799C25.275 21.069 24.844 21.3649 24.5006 21.3295C24.6657 21.4099 25.2798 21.5491 25.4287 21.3615C25.2664 21.872 25.0169 21.9429 24.7636 21.9993C25.0139 22.0161 25.35 21.9978 25.5115 21.8404C25.2664 22.144 24.8589 22.241 24.6858 22.2643C24.807 22.3294 25.0251 22.3767 25.155 22.3259C24.9927 22.5896 24.7184 22.6619 24.505 22.6702H24.505ZM21.8001 20.4952C21.6272 20.8353 21.3625 21.1454 21.1082 21.4521C20.565 21.2693 20.0196 21.0957 19.4809 20.9298C19.4548 20.7845 19.4237 20.6489 19.3987 20.5057C20.2609 19.4179 21.0103 18.653 21.3712 18.3583C21.1874 18.8459 21.0244 19.3071 20.8293 19.6308C21.0874 19.3716 21.393 19.1357 21.7503 19.0569C21.5213 19.3661 21.266 19.7011 21.093 20.0785C21.2951 19.933 21.5322 19.891 21.7427 19.7855C21.4684 20.1636 21.0408 20.5379 20.8371 21.0214C21.1393 20.8226 21.4548 20.6189 21.8001 20.4952V20.4952ZM20.8041 17.7398C20.4067 18.0526 19.8236 18.5698 19.1454 19.34C19.0507 18.9443 18.94 18.546 18.8237 18.1667C18.8606 17.9893 18.9251 17.8204 19.1001 17.7022C18.9747 17.899 19.0541 18.1775 19.2127 18.4188C19.3739 18.1119 19.4384 17.7676 19.7365 17.5147C19.6865 17.7254 19.7672 18.0095 19.853 18.2265C19.9035 18.0193 20.0879 17.8204 20.2414 17.6532C20.1906 17.8535 20.1677 17.9785 20.2523 18.1616C20.4439 17.6983 20.6633 17.5753 20.9103 17.509L20.8041 17.7398H20.8041ZM18.3916 18.4139C18.5525 18.838 18.7044 19.2624 18.8627 19.6801C18.7195 19.8536 18.5763 20.0215 18.4282 20.2205C18.37 19.7533 18.2983 19.2431 18.2268 18.6803C18.2797 18.5908 18.3347 18.5019 18.3916 18.4139ZM23.3667 18.9893C23.3158 19.187 23.2402 19.3549 23.0966 19.4534C23.1514 19.336 23.2073 19.2191 23.2642 19.1028C23.3085 19.078 23.344 19.0411 23.3667 18.9893ZM23.0441 19.1444L22.9831 19.3133C22.9796 19.2528 22.9758 19.1942 22.9727 19.1378C22.9968 19.141 23.0207 19.1433 23.0441 19.1444ZM20.7017 16.4316C20.5108 16.4019 20.3178 16.3796 20.1265 16.3635C20.1981 16.2927 20.2703 16.2224 20.343 16.1522C20.4984 16.2237 20.6266 16.3175 20.7017 16.4316ZM21.0204 15.515C21.0872 15.6173 21.1185 15.6998 21.1597 15.7667C21.1015 15.7333 21.0477 15.6982 20.9725 15.6663L20.9278 15.6005C20.9588 15.5719 20.9896 15.5433 21.0204 15.515ZM22.352 14.2855C22.3785 14.2602 22.4053 14.2348 22.4318 14.2094L22.4383 14.2649C22.4083 14.2705 22.377 14.2774 22.352 14.2855ZM20.8099 13.837L20.7797 13.8803L20.7629 13.8764L20.8099 13.837ZM21.4518 15.4225C21.3926 15.3849 21.3245 15.3438 21.2515 15.3022C21.2777 15.2784 21.3036 15.2545 21.3298 15.2305C21.3708 15.2924 21.4113 15.3567 21.4518 15.4225ZM20.6443 14.077C20.4978 14.2921 20.3538 14.5093 20.213 14.7287C19.6132 14.1234 18.9894 13.8086 18.4088 13.7632C18.8358 13.2743 19.0844 12.749 19.1858 12.2103C19.6487 12.6629 19.3049 13.3743 18.923 13.7676C19.3832 13.5187 19.9142 13.2692 20.2575 12.9578C20.3571 12.9457 20.4584 12.9608 20.5629 12.9934C20.5501 13.0706 20.5401 13.1462 20.5165 13.227C20.2706 13.1786 20.0425 13.2215 19.8083 13.3743C20.0326 13.3359 20.2374 13.3743 20.4253 13.4528C20.3685 13.5873 20.2975 13.7269 20.2048 13.8693C20.1609 13.8803 20.1141 13.8693 20.07 13.8856C20.1089 13.8934 20.1408 13.904 20.1737 13.9091C20.1013 14.0161 20.0374 14.1249 19.9381 14.2388C20.1416 14.227 20.3521 14.1416 20.5487 14.0247C20.5806 14.0403 20.6123 14.0575 20.6443 14.077ZM19.7967 15.3968C19.7476 15.4779 19.6989 15.5591 19.6508 15.6405C19.4252 15.7523 19.2363 15.9203 19.1576 16.0527C19.2428 16.0243 19.3399 16.0064 19.443 15.9984C19.3792 16.1099 19.3162 16.222 19.254 16.3343C18.9074 16.3404 18.593 16.3683 18.3416 16.4131C18.2905 16.421 18.2423 16.4361 18.1904 16.4476C18.1263 16.2975 18.0763 16.1566 18.0091 16.0045C17.8383 15.6328 17.6639 15.3107 17.4878 15.0039C17.8061 14.6532 18.0763 14.6059 18.4535 14.668C18.3139 14.7514 18.1047 14.8987 18.0112 15.2731C18.3108 14.9532 18.7451 14.7678 19.225 14.9048C18.915 15.0107 18.7451 15.1579 18.6075 15.441C18.8645 15.2664 19.2563 15.1885 19.7967 15.3968H19.7967ZM9.27522 25.3465C10.7337 24.8913 14.405 24.634 16.6339 26.4066C17.6625 27.2169 18.6195 28.6077 18.3832 30.4962C18.204 31.9641 18.0417 33.5851 16.1485 34.0177C13.878 34.5347 13.1896 32.8283 13.1896 32.1528C13.1916 31.4764 13.6241 31.1161 13.9715 31.4034C14.3105 31.6928 14.5984 32.3723 15.3946 32.1742C16.188 31.9641 16.4865 29.9135 15.5479 27.9018C15.0112 26.7536 13.7255 26.5393 13.0813 26.4832C12.5359 26.4389 11.3059 26.517 11.3492 26.7032C11.4811 27.3005 12.7331 32.9927 12.7331 32.9927C12.7331 32.9927 13.586 36.3614 14.1411 38.1903C14.8091 40.3914 14.7942 40.1771 13.522 40.6907C12.2724 41.1936 11.3993 41.6195 11.3959 40.6149C11.3918 39.6964 9.04981 29.8191 8.6363 28.9296C8.07539 27.723 8.36593 27.622 7.69404 26.9489C7.16225 26.4173 6.52771 25.9123 7.37781 25.7665C7.96121 25.6626 8.27736 25.6626 9.2753 25.3465H9.27522ZM75.0621 37.5107C75.8893 37.2693 76.3793 36.8503 77.2062 36.8891C80.386 37.0112 81.402 38.746 81.6927 41.1685C81.9827 43.5306 80.6959 45.6018 78.376 46.4602C77.8989 46.6317 77.4622 46.7555 77.1266 46.8425C76.8021 47.1131 76.1825 47.1278 75.7337 47.2533C75.0487 47.4467 75.1459 47.2533 74.9849 46.4328C74.8196 45.6018 74.0857 41.9215 73.9874 40.7695C73.8862 39.6003 73.7428 38.6688 73.5614 38.4608C73.3813 38.2506 72.8793 37.8529 73.3767 37.7651C73.5824 37.7323 74.422 37.5855 75.0621 37.5108V37.5107ZM66.4739 38.8739C67.0123 38.7944 67.2044 38.5122 67.4625 39.228C67.7226 39.9432 69.0855 42.4129 69.5612 42.8905C70.0405 43.3724 70.2858 43.7715 70.2446 42.8414C70.2067 41.9154 69.7992 40.2132 69.7177 39.3004C69.6362 38.399 70.2547 38.2753 70.8304 38.1607C71.4082 38.0449 71.6191 37.9259 71.5639 38.4038C71.5116 38.8831 71.4656 40.6865 71.7144 42.384C71.9625 44.0983 72.2099 46.8817 72.488 47.5015C72.765 48.1258 72.5311 48.1711 71.934 48.2835C71.3406 48.3943 70.3303 48.3466 69.9668 47.5639C69.5992 46.777 68.2949 44.783 67.7306 43.7147C67.169 42.6641 67.2347 43.2775 67.2653 43.9245C67.2964 44.5725 67.2172 47.0369 67.1807 47.882C67.1469 48.721 67.2138 48.9641 66.3855 49.0526C65.5538 49.1341 64.5061 49.5854 64.9859 48.4378C65.5303 47.1366 65.5256 45.6974 65.4857 42.9676C65.4502 40.2682 65.2944 39.4759 65.236 39.1499C65.1786 38.8224 65.9352 38.9524 66.4739 38.8739ZM22.9161 27.4359C22.7225 27.8362 22.2774 28.8373 21.9355 31.4772C21.6767 33.426 21.4549 37.7249 21.6396 38.6048C21.8214 39.4879 22.0638 39.7136 21.7624 39.7485C21.4612 39.786 19.6327 40.2607 19.2122 39.7787C18.7951 39.2973 19.059 35.7649 19.1893 34.364C19.3165 32.9658 19.7129 29.2962 19.7461 28.4562C19.7824 27.6194 19.8276 27.5008 20.2745 27.1787C20.6068 26.9422 21.8639 26.904 22.3033 26.9831C22.743 27.065 23.1087 27.0381 22.9161 27.4359ZM21.5988 21.6181C21.5165 21.5893 21.4335 21.5572 21.3484 21.5291C21.5158 21.4146 21.683 21.3002 21.8559 21.2124C21.7719 21.3354 21.6868 21.4723 21.5988 21.6181ZM22.0863 21.6844C22.0659 21.7105 22.051 21.7434 22.0313 21.7674L22.0065 21.7575C22.0313 21.735 22.0598 21.7105 22.0863 21.6844ZM22.4324 21.7908C22.4234 21.8277 22.412 21.8586 22.4034 21.8987C22.3942 21.8968 22.387 21.8913 22.378 21.8881C22.3984 21.8525 22.412 21.8244 22.4324 21.7908ZM17.3207 18.4843C17.368 18.5868 17.4248 18.6823 17.4878 18.7695C17.5587 19.3057 17.6978 19.8838 17.8608 20.4636C17.5587 20.3805 17.2618 20.307 16.9619 20.2279C17.0511 19.675 17.1858 19.0774 17.3207 18.4843ZM18.3093 18.1992C18.2717 18.2807 18.2345 18.3624 18.1976 18.4445L18.1776 18.28C18.1971 18.199 18.2247 18.1266 18.2515 18.0509L18.3093 18.1992ZM19.275 20.6616C19.3136 20.7416 19.3519 20.8225 19.3939 20.9031C19.3095 20.8801 19.2291 20.8602 19.1454 20.8339C19.19 20.7758 19.2332 20.717 19.275 20.6616ZM15.6875 16.3291C15.7605 16.8296 15.7477 17.3586 15.7086 17.889C15.6284 18.0388 15.5585 18.199 15.516 18.3789C15.5696 18.2902 15.6284 18.1969 15.6958 18.1058C15.6554 18.622 15.6 19.1325 15.5782 19.6192C15.8504 19.2074 16.0228 18.6939 16.2134 18.1969C16.2412 18.3789 16.2966 18.5707 16.3851 18.7322C16.4114 18.551 16.492 18.3473 16.6048 18.1667C16.6439 18.8277 16.7082 19.5256 16.7825 20.1825C15.1281 19.7726 13.5022 19.4713 11.909 19.2957C12.0574 16.4827 12.4082 14.3292 12.6584 13.436C12.9082 14.4067 13.1643 15.3025 13.2157 16.0263C13.3327 15.3347 13.551 14.6305 14.0226 14.1226C14.0076 14.8514 13.9752 15.6595 14.1212 16.4361C14.2765 15.991 14.6032 15.6693 14.818 15.2764C14.8039 16.1669 14.5464 17.2173 14.7627 18.1876C15.0159 17.5561 15.2803 16.8944 15.6875 16.3291L15.6875 16.3291ZM75.8683 29.8332L75.8129 28.53C75.8129 28.53 81.4543 28.9506 83.0768 29.1687C83.96 29.2879 84.6586 29.4131 85.1399 29.4375C84.8377 29.7046 84.5173 29.9582 84.187 30.1928C81.261 30.0621 75.8683 29.8332 75.8683 29.8332L75.8683 29.8332ZM20.1162 19.3792C20.166 19.3952 20.2899 19.4361 20.1156 19.3809L20.1162 19.3793C20.0879 19.3701 20.0962 19.3727 20.1162 19.3792ZM22.3382 14.2983C22.3323 14.2982 22.3266 14.2979 22.3213 14.2979C22.3296 14.2936 22.3401 14.2893 22.352 14.2855C22.3474 14.2898 22.3428 14.2942 22.3382 14.2983ZM22.4478 14.3121C22.455 14.4337 22.4478 14.5346 22.4323 14.6314C22.4033 14.6477 22.3586 14.6513 22.3369 14.668C22.3655 14.6796 22.3827 14.69 22.4033 14.7016L22.3081 14.8607C22.2808 14.6963 22.2548 14.545 22.229 14.4012C22.2657 14.367 22.3021 14.3327 22.3382 14.2983C22.3686 14.2999 22.4079 14.305 22.4478 14.3121ZM9.06582 9.63614C8.54002 9.44019 7.99613 9.27449 7.44278 9.13354C8.80627 9.11504 9.14627 9.46135 9.46795 9.59605C9.34763 9.61154 9.22056 9.61416 9.06582 9.63614ZM20.5881 12.4628C20.5934 12.5023 20.5881 12.5511 20.5899 12.5905C20.5705 12.5939 20.5521 12.5959 20.5346 12.6037C20.5563 12.557 20.5791 12.5116 20.5881 12.4628ZM17.5666 12.0582C18.277 12.6629 18.2478 13.2334 18.009 13.7676C17.6566 13.8285 17.3376 14.0063 17.0532 14.2959C16.8601 14.0042 16.665 13.733 16.4785 13.4954C16.8231 13.23 17.5114 12.4142 17.5666 12.0582H17.5666ZM16.4864 12.2634C16.658 12.7157 16.7155 13.1258 16.4743 13.4827C16.319 13.2832 16.1668 13.0997 16.0325 12.928C16.3242 12.7736 16.5453 12.557 16.4864 12.2634V12.2634ZM44.2838 40.3485C45.3537 40.3838 45.9218 39.2637 46.3812 38.328C46.8156 37.428 46.4612 36.622 46.0561 36.3614C45.6488 36.0943 45.1405 36.081 45.0687 36.2041C44.8345 36.6024 43.4903 39.6017 43.3797 39.9017C43.2674 40.1977 43.6741 40.3269 44.2838 40.3485ZM59.4696 44.1621C59.4696 44.1621 59.2967 42.7831 59.2472 41.7817C59.1926 40.7689 58.8374 40.9677 58.5971 41.2667C58.2753 41.6671 57.5484 42.7787 57.4215 43.2073C57.7131 43.4688 57.8114 43.5559 57.9112 43.6259C58.2753 43.7932 58.7666 43.9885 59.2835 44.1514C59.3978 44.1621 59.4696 44.1621 59.4696 44.1621ZM76.1752 39.5651C76.4087 40.7736 77.0063 44.3139 77.2535 45.754C77.7286 45.6388 78.0726 45.5596 78.5964 45.299C79.2183 44.9849 79.7281 43.1862 79.4361 41.3657C79.141 39.5006 78.2814 38.1535 77.5328 38.0408C77.0184 37.954 76.4631 38.0408 76.0093 38.1535C76.0321 38.493 76.059 38.9555 76.1752 39.5651Z" fill="#2E3649"/>
</g>
</g>
<defs>
<clipPath id="clip0_868_114">
<rect width="90" height="51.2903" fill="white" transform="translate(0 0.778137)"/>
</clipPath>
</defs>
</svg>
