<svg width="143" height="22" viewBox="0 0 143 22" fill="none" xmlns="http://www.w3.org/2000/svg">
<path d="M41.0629 20.7554H31.4691V0.700768H40.4895C42.5499 0.700768 44.2095 1.22754 45.4682 2.28108C46.7268 3.33462 47.3561 4.57463 47.3561 6.00111C47.3561 6.55119 47.2676 7.07796 47.0904 7.58142C46.9133 8.07556 46.6989 8.4718 46.4471 8.77015C46.1954 9.0685 45.9437 9.32955 45.6919 9.55331C45.4495 9.76775 45.2351 9.92159 45.0486 10.0148L44.7829 10.1547C44.8761 10.192 45.002 10.2479 45.1605 10.3225C45.3283 10.3878 45.6173 10.5509 46.0276 10.812C46.4378 11.0637 46.8014 11.3527 47.1184 11.679C47.4354 12.0054 47.7198 12.4529 47.9715 13.0216C48.2325 13.5903 48.3631 14.2103 48.3631 14.8816C48.3631 16.448 47.6778 17.8185 46.3073 18.9932C44.9461 20.168 43.1979 20.7554 41.0629 20.7554ZM36.9093 16.4619H40.6293C41.2633 16.4619 41.7808 16.2708 42.1817 15.8885C42.5826 15.5063 42.783 15.0308 42.783 14.4621C42.783 13.884 42.5826 13.4039 42.1817 13.0216C41.7808 12.6394 41.2633 12.4482 40.6293 12.4482H36.9093V16.4619ZM39.9161 5.00817H36.9093V8.43451H39.9161C40.4848 8.43451 40.937 8.28067 41.2726 7.973C41.6083 7.65601 41.7761 7.24112 41.7761 6.72833C41.7761 6.20622 41.6083 5.79133 41.2726 5.48366C40.937 5.16667 40.4848 5.00817 39.9161 5.00817Z" fill="#2E3649"/>
<path d="M61.3832 12.1685L59.5232 6.29479L57.6631 12.1685H61.3832ZM62.8096 16.4619H56.2227L54.7962 20.7554H48.9225L56.5164 0.700768H62.5299L70.1238 20.7554H64.2501L62.8096 16.4619Z" fill="#2E3649"/>
<path d="M86.7381 20.7554H72.4174V0.700768H77.8576V15.8885H86.7381V20.7554Z" fill="#2E3649"/>
<path d="M89.591 20.7554V0.700768H95.0312V20.7554H89.591Z" fill="#2E3649"/>
<path d="M105.646 6.64442C104.574 7.72593 104.038 9.08714 104.038 10.7281C104.038 12.369 104.574 13.7348 105.646 14.8257C106.718 15.9165 108.047 16.4619 109.632 16.4619C111.217 16.4619 112.541 15.9165 113.603 14.8257C114.676 13.7348 115.212 12.369 115.212 10.7281C115.212 9.08714 114.676 7.72593 113.603 6.64442C112.541 5.55359 111.217 5.00817 109.632 5.00817C108.047 5.00817 106.718 5.55359 105.646 6.64442ZM117.533 3.26003C119.706 5.33915 120.792 7.82849 120.792 10.7281C120.792 13.6276 119.706 16.1216 117.533 18.2101C115.37 20.2892 112.732 21.3287 109.618 21.3287C106.513 21.3287 103.874 20.2892 101.702 18.2101C99.5391 16.1216 98.4576 13.6276 98.4576 10.7281C98.4576 7.82849 99.5391 5.33915 101.702 3.26003C103.874 1.1716 106.513 0.12738 109.618 0.12738C112.732 0.12738 115.37 1.1716 117.533 3.26003Z" fill="#2E3649"/>
<path d="M137.56 0.700768H143V20.7554H138.301L129.686 9.58128V20.7554H124.246V0.700768H128.973L137.56 11.8748V0.700768Z" fill="#2E3649"/>
<path d="M0 21.4125L1.36281 20.3934C2.22022 19.748 3.54284 19.7394 4.41296 20.3733L6.13872 21.6219C6.42659 21.8309 6.86283 21.8302 7.14923 21.6198L8.84986 20.3757C9.71289 19.7415 11.0281 19.7415 11.8911 20.3757L13.5918 21.6198C13.8782 21.8299 14.3144 21.8309 14.6023 21.6219L16.328 20.373C17.1982 19.7391 18.5211 19.748 19.3782 20.3934L20.741 21.4125V0H0V21.4125ZM5.31264 7.10337H15.0237C15.4417 7.10337 15.7804 7.37827 15.7804 7.71691C15.7804 8.05579 15.4417 8.33045 15.0237 8.33045H5.31264C4.89472 8.33045 4.55601 8.05579 4.55601 7.71691C4.55601 7.37827 4.89472 7.10337 5.31264 7.10337ZM5.31264 11.3689H15.0237C15.4417 11.3689 15.7804 11.6435 15.7804 11.9824C15.7804 12.3213 15.4417 12.596 15.0237 12.596H5.31264C4.89472 12.596 4.55601 12.3213 4.55601 11.9824C4.55601 11.6435 4.89472 11.3689 5.31264 11.3689Z" fill="#2E3649"/>
</svg>
