<svg width="79" height="40" viewBox="0 0 79 40" fill="none" xmlns="http://www.w3.org/2000/svg">
<path d="M68.0231 11.4179V21.1972H64.5749V14.3372H61.2548V21.1972H57.8066V11.4172H68.0231V11.4179Z" fill="black"/>
<path fill-rule="evenodd" clip-rule="evenodd" d="M50.7255 21.5469C53.8123 21.5469 56.1045 19.6303 56.1045 16.7246C56.1045 13.9123 54.4133 12.0863 51.5869 12.0863C50.2825 12.0863 49.2062 12.5513 48.3955 13.3536C48.589 11.6953 49.9738 10.4846 51.4984 10.4846C51.8502 10.4846 54.4992 10.4789 54.4992 10.4789L55.9972 7.57593C55.9972 7.57593 52.6715 7.65259 51.1255 7.65259C47.593 7.71493 45.207 10.9666 45.207 14.9159C45.207 19.5169 47.5341 21.5469 50.7255 21.5469ZM50.7443 14.6576C51.8904 14.6576 52.685 15.4203 52.685 16.7243C52.685 17.8979 51.9789 18.8649 50.7443 18.8676C49.5633 18.8676 48.7688 17.9716 48.7688 16.7443C48.7688 15.4399 49.5633 14.6576 50.7443 14.6576Z" fill="black"/>
<path d="M42.3999 17.9232C42.3999 17.9232 41.5856 18.3986 40.3694 18.4886C38.9711 18.5306 37.7253 17.6362 37.7253 16.0472C37.7253 14.4972 38.8247 13.6089 40.3341 13.6089C41.2597 13.6089 42.4842 14.2586 42.4842 14.2586C42.4842 14.2586 43.3801 12.5936 43.8442 11.7609C42.9943 11.1086 41.8624 10.7509 40.5458 10.7509C37.223 10.7509 34.6494 12.9449 34.6494 16.0276C34.6494 19.1496 37.0683 21.2926 40.5458 21.2279C41.5178 21.1912 42.8587 20.8456 43.676 20.3139L42.3999 17.9232Z" fill="black"/>
<path d="M0 8.70667L4.7832 17.365V22.6463L0.00559554 31.2877L0 8.70667Z" fill="#5B57A2"/>
<path d="M18.3652 14.2143L22.8473 11.4323L32.02 11.4236L18.3652 19.895V14.2143Z" fill="#D90751"/>
<path d="M18.3403 8.65567L18.3657 20.119L13.5713 17.1357V0L18.3403 8.65567Z" fill="#FAB718"/>
<path d="M32.0204 11.4237L22.8474 11.4323L18.3403 8.65567L13.5713 0L32.0204 11.4237Z" fill="#ED6F26"/>
<path d="M18.3657 31.3357V25.774L13.5713 22.8474L13.5739 40L18.3657 31.3357Z" fill="#63B22F"/>
<path d="M22.8364 28.579L4.78287 17.365L0 8.70667L32.0009 28.5677L22.8364 28.579Z" fill="#1487C9"/>
<path d="M13.5742 40L18.3653 31.3357L22.8361 28.579L32.0007 28.5677L13.5742 40Z" fill="#017F36"/>
<path d="M0.00585938 31.2877L13.6106 22.8477L9.03673 20.0057L4.78346 22.6463L0.00585938 31.2877Z" fill="#984995"/>
<path d="M37.7266 27.7789C37.6213 27.9149 37.4827 28.0175 37.3165 28.0869C37.1459 28.1572 36.9634 28.193 36.7793 28.1922C36.5962 28.1947 36.4141 28.1638 36.2418 28.1009C36.0871 28.044 35.9456 27.9552 35.8264 27.8402C35.7087 27.725 35.6163 27.586 35.5552 27.4322C35.4891 27.2638 35.4561 27.0838 35.4581 26.9025C35.4581 26.7225 35.4887 26.5559 35.5522 26.3979C35.6131 26.2395 35.7017 26.1039 35.8126 25.9899C35.9235 25.8735 36.0565 25.7849 36.2059 25.7155C36.3583 25.6489 36.5245 25.6129 36.7072 25.6129C36.904 25.6129 37.0867 25.6379 37.2529 25.6875C37.4192 25.7375 37.5604 25.8209 37.6766 25.9375L37.4745 26.2842C37.3767 26.1945 37.2616 26.1264 37.1364 26.0842C37.0174 26.0454 36.8931 26.0258 36.7681 26.0262C36.6575 26.0262 36.5522 26.0482 36.4498 26.0899C36.3489 26.131 36.2568 26.1913 36.1783 26.2675C36.098 26.3459 36.0348 26.4404 35.9926 26.5449C35.9456 26.6529 35.9235 26.7722 35.9235 26.9052C35.9235 27.0412 35.9482 27.1632 35.9953 27.2685C36.0427 27.3769 36.1062 27.4685 36.1865 27.5459C36.2668 27.6239 36.361 27.6819 36.4689 27.7209C36.5772 27.7625 36.6908 27.7819 36.8125 27.7819C36.962 27.7819 37.0979 27.7512 37.2141 27.6929C37.3292 27.6366 37.4327 27.5585 37.5189 27.4629L37.7266 27.7789ZM38.297 28.1339V25.6655H38.7348V27.5045L40.1583 25.6655H40.5961V28.1342H40.1583V26.2952L38.7348 28.1342L38.297 28.1339ZM43.4959 27.7789C43.3882 27.916 43.2469 28.0222 43.0861 28.0869C42.9155 28.1572 42.7329 28.1929 42.5486 28.1922C42.3656 28.1947 42.1836 28.1638 42.0115 28.1009C41.8566 28.044 41.7151 27.9552 41.5957 27.8402C41.478 27.725 41.3856 27.586 41.3245 27.4322C41.2584 27.2638 41.2254 27.0838 41.2274 26.9025C41.2274 26.7225 41.258 26.5559 41.3216 26.3979C41.3828 26.2395 41.4713 26.1039 41.5819 25.9899C41.6928 25.8735 41.8258 25.7849 41.9752 25.7155C42.1331 25.6452 42.3041 25.6101 42.4765 25.6129C42.6734 25.6129 42.8561 25.6379 43.0223 25.6875C43.1885 25.7375 43.3297 25.8209 43.4462 25.9375L43.2438 26.2842C43.1462 26.1944 43.0312 26.1263 42.9061 26.0842C42.7871 26.0454 42.6628 26.0258 42.5378 26.0262C42.3177 26.0269 42.1064 26.1133 41.9476 26.2675C41.8681 26.3465 41.8049 26.4408 41.762 26.5449C41.7149 26.6529 41.6928 26.7722 41.6928 26.9052C41.6928 27.0412 41.7179 27.1632 41.7649 27.2685C41.812 27.3769 41.8755 27.4685 41.9558 27.5459C42.0361 27.6239 42.1306 27.6819 42.2386 27.7209C42.3465 27.7595 42.4601 27.7819 42.5819 27.7819C42.7316 27.7819 42.8646 27.7512 42.9834 27.6929C43.0986 27.6366 43.202 27.5585 43.2882 27.4629L43.4959 27.7789ZM43.7204 25.6655H45.9665V26.1039H45.0637V28.1339H44.6259V26.1039H43.723V25.6655H43.7204Z" fill="black"/>
<path fill-rule="evenodd" clip-rule="evenodd" d="M48.0113 28.1092C48.1775 28.0566 48.3187 27.9759 48.4405 27.8652L48.3075 27.5212C48.2272 27.5936 48.1193 27.6546 47.9893 27.7046C47.8589 27.7546 47.7121 27.7792 47.5515 27.7792C47.3106 27.7792 47.1111 27.7156 46.9531 27.5852C46.7954 27.4546 46.7095 27.2719 46.6901 27.0386H48.5847C48.6041 26.9526 48.6123 26.8556 48.6123 26.7419C48.6123 26.5726 48.5817 26.4202 48.5208 26.2816C48.4642 26.1469 48.3813 26.0252 48.2773 25.9236C48.1718 25.8229 48.0474 25.7447 47.9116 25.6936C47.7694 25.6377 47.6181 25.6094 47.4656 25.6102C47.2605 25.6102 47.0805 25.6462 46.9228 25.7129C46.7738 25.7764 46.6389 25.8699 46.5265 25.9876C46.4174 26.1047 46.3335 26.2435 46.2803 26.3952C46.2218 26.5568 46.1927 26.7278 46.1944 26.8999C46.1944 27.0942 46.2277 27.2716 46.2885 27.4299C46.3478 27.5833 46.4384 27.7222 46.5545 27.8376C46.6681 27.9509 46.8063 28.0372 46.9699 28.0982C47.145 28.1611 47.3298 28.1921 47.5156 28.1896C47.6839 28.1885 47.851 28.1612 48.0113 28.1092ZM46.9034 26.2092C47.039 26.0846 47.2191 26.0236 47.4462 26.0236C47.6595 26.0236 47.8313 26.0819 47.956 26.1986C48.0808 26.3149 48.1469 26.4759 48.1581 26.6809H46.6625C46.6837 26.4994 46.7693 26.3316 46.9034 26.2092Z" fill="black"/>
<path d="M49.207 25.6656H49.606L50.5533 26.8889L51.4505 25.6656H51.8382V28.1343H51.4008V26.3343L50.5477 27.4796H50.5309L49.6448 26.3339V28.1339H49.207V25.6656Z" fill="black"/>
<path fill-rule="evenodd" clip-rule="evenodd" d="M53.0298 25.6739C52.8969 25.7091 52.77 25.7641 52.6532 25.8372L52.7694 26.1872C52.8691 26.1372 52.9689 26.0956 53.0686 26.0596C53.1683 26.0232 53.2957 26.0066 53.4481 26.0066C53.5699 26.0066 53.667 26.0262 53.7417 26.0649C53.8164 26.1009 53.8717 26.1566 53.9106 26.2232C53.9494 26.2899 53.9744 26.3729 53.9882 26.4699C54.0021 26.5669 54.0077 26.6722 54.0077 26.7862C53.9181 26.723 53.816 26.6804 53.7085 26.6612C53.6045 26.6403 53.4988 26.6292 53.3928 26.6279C53.2625 26.6279 53.1407 26.6476 53.0242 26.6806C52.908 26.7139 52.8082 26.7639 52.7279 26.8306C52.6459 26.8971 52.5797 26.9814 52.534 27.0772C52.4853 27.1822 52.4606 27.2969 52.462 27.4129C52.462 27.6542 52.5314 27.8429 52.6697 27.9762C52.8082 28.1092 52.9909 28.1756 53.218 28.1756C53.4231 28.1756 53.5867 28.1396 53.7111 28.0676C53.8358 27.9952 53.9356 27.9122 54.0077 27.8179V28.1369H54.4174V26.6226C54.4174 26.3006 54.3483 26.0512 54.2071 25.8762C54.0685 25.7016 53.822 25.6129 53.4731 25.6129C53.3178 25.6129 53.171 25.6349 53.0298 25.6739ZM53.7614 27.6739C53.6617 27.7459 53.5314 27.7789 53.3707 27.7789C53.2295 27.7789 53.1186 27.7429 53.0413 27.6736C52.9636 27.6016 52.9248 27.5072 52.9248 27.3906C52.9248 27.3216 52.9386 27.2632 52.9692 27.2106C52.9998 27.1579 53.0413 27.1162 53.0883 27.0829C53.1398 27.0481 53.197 27.0227 53.2572 27.0079C53.321 26.9912 53.3846 26.9829 53.4511 26.9829C53.6673 26.9829 53.8526 27.0356 54.005 27.1466V27.4599C53.9332 27.5414 53.8513 27.6136 53.7614 27.6739ZM58.2817 24.7972C58.3702 24.7559 58.4531 24.6866 58.5308 24.5839L58.2925 24.2372C58.2316 24.3206 58.1625 24.3786 58.0848 24.4092C58.0025 24.4418 57.9172 24.466 57.8301 24.4812L57.7471 24.4962C57.675 24.5089 57.5977 24.5229 57.5144 24.5369C57.3809 24.5619 57.2507 24.6029 57.1267 24.6589C56.9298 24.7449 56.7722 24.8612 56.653 25.0082C56.5339 25.1552 56.4397 25.3216 56.3759 25.5049C56.3112 25.6906 56.2676 25.8832 56.2459 26.0789C56.2235 26.2789 56.2126 26.4699 56.2126 26.6529C56.2126 26.8889 56.2429 27.1022 56.3038 27.2936C56.365 27.4852 56.4506 27.6459 56.5642 27.7762C56.6777 27.9096 56.8136 28.0096 56.9743 28.0816C57.1349 28.1536 57.3149 28.1896 57.517 28.1896C57.7027 28.1896 57.8745 28.1536 58.0295 28.0869C58.179 28.0229 58.3145 27.9296 58.4285 27.8126C58.539 27.6986 58.6279 27.5626 58.6888 27.4102C58.7523 27.2576 58.7829 27.0939 58.7829 26.9219C58.7829 26.7362 58.7553 26.5672 58.7026 26.4172C58.6541 26.2742 58.5768 26.143 58.4755 26.0319C58.374 25.9227 58.2501 25.8373 58.1125 25.7819C57.9609 25.7214 57.7991 25.6913 57.6362 25.6932C57.5309 25.6932 57.4285 25.7072 57.3288 25.7349C57.2318 25.7626 57.1386 25.8027 57.0516 25.8542C56.9672 25.9032 56.8899 25.9638 56.8219 26.0342C56.7554 26.1039 56.7001 26.1816 56.6613 26.2702H56.6501C56.6586 26.1566 56.6724 26.0402 56.6971 25.9209C56.7221 25.8016 56.758 25.6876 56.8054 25.5796C56.8525 25.4716 56.9134 25.3742 56.9881 25.2856C57.0682 25.1961 57.1665 25.1251 57.2761 25.0776C57.3967 25.0194 57.5243 24.9775 57.6556 24.9529L57.7425 24.9369C57.8291 24.9209 57.9117 24.9056 57.9907 24.8889C58.096 24.8669 58.1928 24.8386 58.2817 24.7972ZM56.7416 27.1689C56.6987 27.0289 56.6782 26.8828 56.6807 26.7362C56.6992 26.6521 56.733 26.5722 56.7804 26.5006C56.8275 26.4256 56.8884 26.3592 56.9605 26.3006C57.1231 26.1715 57.3242 26.1022 57.5309 26.1039C57.7886 26.1039 57.9825 26.1842 58.1181 26.3426C58.254 26.5032 58.3205 26.7029 58.3205 26.9442C58.3205 27.0636 58.2981 27.1719 58.2596 27.2716C58.2222 27.3699 58.1656 27.4596 58.0933 27.5353C58.021 27.6111 57.9344 27.6714 57.8386 27.7126C57.7389 27.7569 57.6306 27.7792 57.5088 27.7792C57.387 27.7792 57.2761 27.7542 57.1737 27.7042C57.072 27.6552 56.9821 27.5842 56.9104 27.4962C56.8354 27.3982 56.7782 27.2873 56.7416 27.1689ZM62.1399 25.6656H61.7022V28.1342H62.1399V25.6656ZM59.4143 25.6656H59.852V26.4062H60.2565C60.4475 26.4062 60.6025 26.4312 60.7272 26.4782C60.852 26.5256 60.9517 26.5892 61.0264 26.6669C61.1011 26.7446 61.1538 26.8362 61.1844 26.9386C61.2147 27.0412 61.2315 27.1466 61.2315 27.2576C61.2315 27.3686 61.2147 27.4742 61.1788 27.5796C61.1456 27.6849 61.0873 27.7762 61.0096 27.8596C60.9323 27.9429 60.827 28.0096 60.694 28.0596C60.561 28.1092 60.4004 28.1369 60.2065 28.1369H59.4116V25.6656H59.4143ZM59.852 26.8192V27.7236H60.1706C60.3895 27.7236 60.5446 27.6849 60.6331 27.6069C60.722 27.5292 60.7661 27.4186 60.7661 27.2716C60.7661 27.1216 60.719 27.0082 60.6305 26.9302C60.539 26.8526 60.3866 26.8136 60.1762 26.8136H59.852V26.8192Z" fill="black"/>
<path d="M65.0342 27.7789C64.9289 27.9149 64.7903 28.0176 64.6241 28.0869C64.4535 28.1572 64.271 28.1929 64.0869 28.1922C63.9038 28.1947 63.7217 28.1638 63.5494 28.1009C63.3946 28.0441 63.2532 27.9553 63.134 27.8402C63.0163 27.725 62.9238 27.586 62.8625 27.4322C62.7966 27.2637 62.7637 27.0838 62.7657 26.9026C62.7657 26.7226 62.796 26.5559 62.8598 26.3979C62.9207 26.2396 63.0093 26.1039 63.1202 25.9899C63.2311 25.8736 63.3638 25.7849 63.5135 25.7156C63.6714 25.6451 63.8424 25.6101 64.0148 25.6129C64.2113 25.6129 64.3943 25.6379 64.5606 25.6876C64.7268 25.7376 64.868 25.8209 64.9842 25.9376L64.7821 26.2842C64.6843 26.1945 64.5692 26.1264 64.444 26.0842C64.325 26.0454 64.2007 26.0258 64.0757 26.0262C63.9651 26.0262 63.8598 26.0482 63.7571 26.0899C63.6563 26.131 63.5643 26.1913 63.4859 26.2676C63.4062 26.3464 63.3431 26.4408 63.3002 26.5449C63.2532 26.6529 63.2311 26.7722 63.2311 26.9052C63.2311 27.0412 63.2558 27.1632 63.3029 27.2686C63.3499 27.3769 63.4138 27.4686 63.4941 27.5459C63.5744 27.6239 63.6686 27.6819 63.7765 27.7209C63.8848 27.7596 63.9984 27.7819 64.1202 27.7819C64.2696 27.7819 64.4026 27.7512 64.5217 27.6929C64.6369 27.6366 64.7403 27.5585 64.8265 27.4629L65.0342 27.7789ZM65.2584 25.6656H67.5048V26.1039H66.6016V28.1339H66.1642V26.1039H65.2613V25.6656H65.2584Z" fill="black"/>
<path fill-rule="evenodd" clip-rule="evenodd" d="M68.4192 25.6659H67.9814V29.2326H68.4192V28.0206C68.5078 28.0789 68.6131 28.1206 68.7349 28.1482C68.8567 28.1759 68.984 28.1896 69.1144 28.1896C69.3082 28.1896 69.4827 28.1536 69.6407 28.0872C69.7922 28.0216 69.9295 27.9265 70.0449 27.8072C70.1584 27.6876 70.2444 27.5489 70.3052 27.3852C70.3661 27.2219 70.3967 27.0469 70.3967 26.8612C70.3967 26.6779 70.3691 26.5089 70.3164 26.3562C70.2668 26.2112 70.1897 26.0775 70.0893 25.9626C69.9908 25.8505 69.8686 25.7623 69.7319 25.7046C69.5824 25.6395 69.4209 25.6073 69.2582 25.6102C69.0867 25.6102 68.9261 25.6436 68.7737 25.7102C68.6213 25.7769 68.5022 25.8569 68.4192 25.9569V25.6659ZM68.724 26.1236C68.8488 26.0569 68.9844 26.0236 69.1312 26.0236C69.2585 26.0236 69.3721 26.0429 69.4748 26.0846C69.5745 26.1262 69.6575 26.1846 69.7269 26.2622C69.796 26.3399 69.8487 26.4289 69.882 26.5339C69.9178 26.6392 69.9346 26.7532 69.9346 26.8779C69.9346 27.0112 69.9122 27.1302 69.8737 27.2412C69.8374 27.3465 69.7798 27.4429 69.7045 27.5242C69.629 27.6046 69.5374 27.6679 69.436 27.7099C69.3228 27.7579 69.2011 27.7815 69.0785 27.7792C68.9597 27.7792 68.8488 27.7656 68.7434 27.7379C68.6281 27.7061 68.5187 27.6555 68.4195 27.5879V26.3646C68.4969 26.2706 68.5996 26.1902 68.724 26.1236ZM73.7537 25.6656H73.316V28.1342H73.7537V25.6656ZM71.0254 25.6656H71.4632V26.4062H71.8674C72.0586 26.4062 72.2136 26.4312 72.3384 26.4782C72.4631 26.5256 72.5629 26.5892 72.6376 26.6669C72.7123 26.7446 72.765 26.8362 72.7953 26.9386C72.8259 27.0412 72.8423 27.1466 72.8423 27.2576C72.8423 27.3686 72.8259 27.4742 72.79 27.5796C72.7567 27.6849 72.6985 27.7762 72.6208 27.8596C72.5435 27.9429 72.4381 28.0096 72.3052 28.0596C72.1722 28.1092 72.0115 28.1369 71.8177 28.1369H71.0228V25.6656H71.0254ZM71.4662 26.8192V27.7236H71.7848C72.0033 27.7236 72.1587 27.6849 72.2472 27.6069C72.3358 27.5292 72.3802 27.4186 72.3802 27.2716C72.3802 27.1216 72.3331 27.0082 72.2446 26.9302C72.1531 26.8526 72.0007 26.8136 71.7904 26.8136H71.4662V26.8192Z" fill="black"/>
<path d="M75.8533 26.8556L76.7894 28.1343H76.2522L75.5291 27.1356L74.7951 28.1343H74.2856L75.2161 26.8776L74.3409 25.6656H74.8784L75.5459 26.5976L76.2243 25.6656H76.7341L75.8533 26.8556ZM37.4031 31.1853H36.0598V33.2433H35.6221V30.7749H37.8405V33.2433H37.4031V31.1853ZM40.325 31.2129H39.4609L39.433 31.6289C39.4027 31.9813 39.3612 32.2643 39.3029 32.4803C39.2447 32.6969 39.1726 32.8633 39.0897 32.9796C39.0067 33.0963 38.9096 33.1766 38.7987 33.2156C38.6843 33.2576 38.5633 33.2783 38.4416 33.2766L38.4083 32.8493C38.4554 32.8519 38.5107 32.8409 38.5716 32.8133C38.6328 32.7856 38.6937 32.7246 38.7516 32.6333C38.8099 32.5386 38.8625 32.4056 38.9096 32.2336C38.9567 32.0589 38.9873 31.8316 39.0037 31.5456L39.0482 30.7773H40.7627V33.2459H40.325V31.2129Z" fill="black"/>
<path fill-rule="evenodd" clip-rule="evenodd" d="M41.9428 30.7805C41.8013 30.8192 41.6739 30.8745 41.566 30.9439L41.6825 31.2935C41.7822 31.2435 41.8819 31.2019 41.9814 31.1659C42.0811 31.1299 42.2088 31.1132 42.3609 31.1132C42.483 31.1132 42.5797 31.1325 42.6545 31.1712C42.7295 31.2075 42.7848 31.2629 42.8236 31.3295C42.8622 31.3962 42.8872 31.4795 42.901 31.5762C42.9148 31.6735 42.9204 31.7789 42.9204 31.8925C42.8308 31.8294 42.7287 31.7869 42.6212 31.7679C42.5172 31.7469 42.4116 31.7358 42.3056 31.7345C42.1756 31.7345 42.0534 31.7539 41.9372 31.7872C41.8207 31.8205 41.721 31.8705 41.6407 31.9372C41.5587 32.0038 41.4925 32.088 41.4468 32.1839C41.3981 32.2888 41.3736 32.4036 41.3751 32.5195C41.3751 32.7605 41.4442 32.9495 41.5828 33.0825C41.721 33.2155 41.904 33.2822 42.1311 33.2822C42.3362 33.2822 42.4994 33.2462 42.6242 33.1739C42.7486 33.1019 42.8483 33.0185 42.9204 32.9242V33.2432H43.3305V31.7289C43.3305 31.4072 43.2611 31.1575 43.1199 30.9829C42.9813 30.8079 42.7348 30.7195 42.3859 30.7195C42.2362 30.7197 42.0872 30.7404 41.9428 30.7805ZM42.6768 32.7799C42.5774 32.8522 42.4471 32.8855 42.2865 32.8855C42.1423 32.8855 42.0343 32.8495 41.957 32.7799C41.8793 32.7079 41.8405 32.6135 41.8405 32.4972C41.8405 32.4279 41.8543 32.3695 41.8849 32.3169C41.9152 32.2642 41.957 32.2225 42.0041 32.1892C42.0511 32.1559 42.1091 32.1309 42.1729 32.1142C42.2362 32.0976 42.3014 32.0894 42.3668 32.0895C42.5827 32.0895 42.7683 32.1422 42.9207 32.2529V32.5662C42.8488 32.6477 42.7668 32.7195 42.6768 32.7799Z" fill="black"/>
<path d="M43.7588 30.7749H46.0052V31.2129H45.102V33.2432H44.6646V31.2132H43.7618V30.7749H43.7588Z" fill="black"/>
<path fill-rule="evenodd" clip-rule="evenodd" d="M48.0497 33.2182C48.2159 33.1655 48.3571 33.0849 48.4789 32.9742L48.3459 32.6302C48.2656 32.7025 48.1577 32.7635 48.0273 32.8135C47.8973 32.8635 47.7505 32.8882 47.5899 32.8882C47.349 32.8882 47.1495 32.8245 46.9915 32.6942C46.8335 32.5639 46.7479 32.3809 46.7285 32.1475H48.6231C48.6422 32.0619 48.6507 31.9645 48.6507 31.8509C48.6507 31.6819 48.6201 31.5292 48.5592 31.3905C48.5025 31.2559 48.4196 31.1343 48.3153 31.0329C48.2101 30.932 48.0858 30.8537 47.95 30.8025C47.8078 30.7467 47.6565 30.7184 47.504 30.7192C47.2989 30.7192 47.1189 30.7552 46.9612 30.8219C46.8121 30.8852 46.6772 30.9787 46.5649 31.0965C46.4558 31.2137 46.3718 31.3525 46.3184 31.5042C46.26 31.6658 46.2309 31.8368 46.2325 32.0089C46.2325 32.2032 46.2657 32.3805 46.3266 32.5389C46.3878 32.6969 46.479 32.8329 46.5926 32.9465C46.7061 33.0602 46.8447 33.1462 47.0083 33.2072C47.1833 33.2702 47.368 33.3013 47.5537 33.2989C47.7173 33.2989 47.8835 33.2709 48.0497 33.2182ZM46.9392 31.3155C47.0748 31.1909 47.2548 31.1299 47.4819 31.1299C47.6982 31.1299 47.867 31.1909 47.9918 31.3045C48.1162 31.4212 48.1827 31.5819 48.1939 31.7872H46.6982C46.7193 31.6056 46.805 31.4379 46.9392 31.3155ZM48.864 30.7749H49.418L50.2626 31.9649L49.3597 33.2432H48.8226L49.7695 31.9645L48.864 30.7749ZM50.3705 30.7749H50.8083V33.2432H50.3705V30.7749ZM52.3731 33.2432L51.4093 31.9645L52.3096 30.7745H51.7665L50.9163 31.9645L51.8303 33.2432H52.3731ZM54.373 33.2182C54.5392 33.1655 54.6804 33.0849 54.8022 32.9742L54.6692 32.6302C54.5889 32.7025 54.481 32.7635 54.3509 32.8135C54.2206 32.8635 54.0738 32.8882 53.9132 32.8882C53.6722 32.8882 53.4728 32.8245 53.3148 32.6942C53.1571 32.5639 53.0712 32.3809 53.0518 32.1475H54.9464C54.9658 32.0619 54.974 31.9645 54.974 31.8509C54.974 31.6819 54.9437 31.5292 54.8825 31.3905C54.8258 31.256 54.743 31.1344 54.639 31.0329C54.5335 30.932 54.4092 30.8537 54.2733 30.8025C54.1311 30.7467 53.9798 30.7184 53.8273 30.7192C53.6225 30.7192 53.4425 30.7552 53.2845 30.8219C53.1355 30.8853 53.0008 30.9788 52.8885 31.0965C52.7792 31.2135 52.6952 31.3524 52.642 31.5042C52.5835 31.6658 52.5544 31.8368 52.5561 32.0089C52.5561 32.2032 52.5893 32.3805 52.6502 32.5389C52.7111 32.6969 52.8026 32.8329 52.9162 32.9465C53.0297 33.0602 53.168 33.1462 53.3316 33.2072C53.5067 33.2702 53.6915 33.3013 53.8773 33.2989C54.0456 33.2976 54.2128 33.2704 54.373 33.2182ZM53.2625 31.3155C53.3984 31.1909 53.5784 31.1299 53.8055 31.1299C54.0188 31.1299 54.1903 31.1909 54.3151 31.3045C54.4398 31.4212 54.5063 31.5819 54.5172 31.7872H53.0215C53.0426 31.6056 53.1283 31.4379 53.2625 31.3155ZM56.7498 29.9455C56.4921 29.9455 56.3509 29.8012 56.3288 29.5129H55.916C55.916 29.6235 55.9355 29.7235 55.9713 29.8179C56.0076 29.9122 56.0602 29.9925 56.1293 30.0592C56.1985 30.1259 56.2873 30.1785 56.3897 30.2199C56.4921 30.2615 56.6112 30.2809 56.7468 30.2809C56.8716 30.2809 56.9825 30.2615 57.0822 30.2199C57.182 30.1812 57.2649 30.1259 57.337 30.0592C57.4061 29.9925 57.4617 29.9122 57.5002 29.8179C57.5391 29.7235 57.5585 29.6235 57.5585 29.5129H57.1487C57.1293 29.8012 56.9934 29.9455 56.7498 29.9455ZM55.5668 30.7745V33.2432H56.0046L57.4282 31.4042V33.2432H57.8659V30.7745H57.4282L56.0046 32.6135V30.7745H55.5668Z" fill="black"/>
</svg>
