<svg width="200" height="31" viewBox="0 0 200 31" fill="none" xmlns="http://www.w3.org/2000/svg">
<path d="M57.414 29.0202H44V0.979931H56.6122C59.4932 0.979931 61.8136 1.71646 63.5734 3.18952C65.3333 4.66258 66.2132 6.39635 66.2132 8.39085C66.2132 9.15997 66.0894 9.89649 65.8417 10.6004C65.594 11.2913 65.2942 11.8454 64.9422 12.2625C64.5902 12.6797 64.2383 13.0447 63.8863 13.3575C63.5474 13.6574 63.2475 13.8724 62.9868 14.0028L62.6153 14.1983C62.7456 14.2505 62.9216 14.3287 63.1432 14.433C63.3779 14.5242 63.782 14.7524 64.3556 15.1174C64.9292 15.4693 65.4376 15.8735 65.8808 16.3297C66.324 16.786 66.7216 17.4117 67.0736 18.2069C67.4386 19.0021 67.6211 19.869 67.6211 20.8076C67.6211 22.9976 66.6629 24.9139 64.7467 26.5564C62.8434 28.1989 60.3992 29.0202 57.414 29.0202ZM51.6065 23.0171H56.8078C57.6942 23.0171 58.4177 22.7499 58.9783 22.2154C59.5388 21.681 59.8191 21.0161 59.8191 20.2209C59.8191 19.4127 59.5388 18.7414 58.9783 18.2069C58.4177 17.6724 57.6942 17.4052 56.8078 17.4052H51.6065V23.0171ZM55.8105 7.00252H51.6065V11.7932H55.8105C56.6057 11.7932 57.238 11.5781 57.7073 11.1479C58.1766 10.7047 58.4112 10.1246 58.4112 9.40765C58.4112 8.67764 58.1766 8.09754 57.7073 7.66735C57.238 7.22413 56.6057 7.00252 55.8105 7.00252Z" fill="white"/>
<path d="M85.8257 17.0141L83.2251 8.80148L80.6244 17.0141H85.8257ZM87.8202 23.0171H78.6103L76.6159 29.0202H68.4032L79.021 0.979931H87.4291L98.0469 29.0202H89.8343L87.8202 23.0171Z" fill="white"/>
<path d="M121.277 29.0202H101.254V0.979931H108.86V22.2154H121.277V29.0202Z" fill="white"/>
<path d="M125.266 29.0202V0.979931H132.872V29.0202H125.266Z" fill="white"/>
<path d="M147.714 9.29033C146.215 10.8025 145.465 12.7057 145.465 15.0001C145.465 17.2944 146.215 19.2041 147.714 20.7293C149.213 22.2545 151.07 23.0171 153.287 23.0171C155.503 23.0171 157.354 22.2545 158.84 20.7293C160.339 19.2041 161.089 17.2944 161.089 15.0001C161.089 12.7057 160.339 10.8025 158.84 9.29033C157.354 7.76512 155.503 7.00252 153.287 7.00252C151.07 7.00252 149.213 7.76512 147.714 9.29033ZM164.335 4.55829C167.372 7.4653 168.891 10.9459 168.891 15.0001C168.891 19.0542 167.372 22.5413 164.335 25.4614C161.31 28.3684 157.621 29.8219 153.267 29.8219C148.926 29.8219 145.237 28.3684 142.2 25.4614C139.175 22.5413 137.663 19.0542 137.663 15.0001C137.663 10.9459 139.175 7.4653 142.2 4.55829C145.237 1.63824 148.926 0.178223 153.267 0.178223C157.621 0.178223 161.31 1.63824 164.335 4.55829Z" fill="white"/>
<path d="M192.336 0.979931H199.942V29.0202H193.372L181.327 13.3966V29.0202H173.72V0.979931H180.33L192.336 16.6035V0.979931Z" fill="white"/>
<path d="M0 29.9388L1.90548 28.514C3.10431 27.6116 4.95359 27.5995 6.17019 28.4858L8.58313 30.2317C8.98564 30.5239 9.59559 30.5229 9.99602 30.2287L12.3738 28.4892C13.5805 27.6025 15.4195 27.6025 16.6262 28.4892L19.004 30.2287C19.4044 30.5226 20.0144 30.5239 20.4169 30.2317L22.8298 28.4855C24.0464 27.5992 25.8961 27.6116 27.0945 28.514L29 29.9388V0H0V29.9388ZM7.42811 9.93191H21.0062C21.5905 9.93191 22.0641 10.3163 22.0641 10.7898C22.0641 11.2636 21.5905 11.6476 21.0062 11.6476H7.42811C6.84378 11.6476 6.3702 11.2636 6.3702 10.7898C6.3702 10.3163 6.84378 9.93191 7.42811 9.93191ZM7.42811 15.896H21.0062C21.5905 15.896 22.0641 16.28 22.0641 16.7538C22.0641 17.2276 21.5905 17.6116 21.0062 17.6116H7.42811C6.84378 17.6116 6.3702 17.2276 6.3702 16.7538C6.3702 16.28 6.84378 15.896 7.42811 15.896Z" fill="white"/>
</svg>
